<svg width="4" height="15" viewBox="0 0 4 15" fill="none" xmlns="http://www.w3.org/2000/svg">
<path d="M4 7.5C4 7.88457 3.8827 8.26051 3.66294 8.58028C3.44318 8.90004 3.13082 9.14926 2.76537 9.29643C2.39991 9.4436 1.99778 9.48211 1.60982 9.40708C1.22186 9.33206 0.865492 9.14687 0.585787 8.87493C0.306082 8.60299 0.115601 8.25653 0.0384303 7.87934C-0.0387401 7.50216 0.000866566 7.11119 0.152242 6.75589C0.303617 6.40059 0.559962 6.09691 0.88886 5.88325C1.21776 5.6696 1.60444 5.55556 2 5.55556C2.53043 5.55556 3.03914 5.76042 3.41421 6.12507C3.78929 6.48972 4 6.9843 4 7.5ZM2 3.88889C2.39556 3.88889 2.78224 3.77485 3.11114 3.56119C3.44004 3.34753 3.69638 3.04385 3.84776 2.68855C3.99913 2.33325 4.03874 1.94229 3.96157 1.5651C3.8844 1.18792 3.69392 0.841451 3.41421 0.569515C3.13451 0.29758 2.77814 0.11239 2.39018 0.0373628C2.00222 -0.037664 1.60009 0.000842495 1.23463 0.148013C0.869182 0.295183 0.556824 0.544408 0.337062 0.86417C0.117299 1.18393 1.07732e-06 1.55987 1.07732e-06 1.94445C1.07732e-06 2.46014 0.210715 2.95472 0.585787 3.31937C0.96086 3.68403 1.46957 3.88889 2 3.88889ZM2 11.1111C1.60444 11.1111 1.21776 11.2252 0.88886 11.4388C0.559962 11.6525 0.303617 11.9561 0.152242 12.3114C0.000866566 12.6667 -0.0387401 13.0577 0.0384303 13.4349C0.115601 13.8121 0.306082 14.1585 0.585787 14.4305C0.865492 14.7024 1.22186 14.8876 1.60982 14.9626C1.99778 15.0377 2.39991 14.9992 2.76537 14.852C3.13082 14.7048 3.44318 14.4556 3.66294 14.1358C3.8827 13.8161 4 13.4401 4 13.0556C4 12.5399 3.78929 12.0453 3.41421 11.6806C3.03914 11.316 2.53043 11.1111 2 11.1111Z" fill="#56B947"/>
</svg>
