<svg width="86" height="78" viewBox="0 0 86 78" fill="none" xmlns="http://www.w3.org/2000/svg">
<path d="M60.4976 2.10782C59.5349 1.12467 58.3146 0.447446 56.9839 0.157864C55.6532 -0.131719 54.269 -0.0212816 52.9983 0.475849L52.9809 0.484768L38.3894 6.22194L38.3661 6.23085C36.8866 6.81963 35.541 7.71305 34.4131 8.85568L2.14899 41.8518C1.49158 42.5191 0.96996 43.3129 0.614266 44.1875C0.258572 45.0621 0.075852 46.0001 0.0766628 46.9473C0.0774736 47.8945 0.261799 48.8322 0.61899 49.7061C0.976181 50.5801 1.49916 51.373 2.15771 52.039L25.4024 75.8111C26.0548 76.4834 26.831 77.0169 27.6862 77.3807C28.5414 77.7444 29.4586 77.9313 30.3848 77.9305C31.311 77.9296 32.2278 77.7411 33.0824 77.3758C33.937 77.0105 34.7123 76.4757 35.3635 75.8022L67.6189 42.815C68.7525 41.6556 69.6158 40.2882 70.1942 38.7484L71.8132 34.447C72.2202 34.4232 72.6271 34.3816 73.0282 34.3222C73.146 34.307 73.2626 34.2831 73.377 34.2508C75.5445 33.8759 77.6062 33.0231 79.419 31.7515C81.2318 30.48 82.7524 28.8202 83.8751 26.8875C84.9978 24.9547 85.6958 22.7952 85.9206 20.5588C86.1454 18.3225 85.8916 16.063 85.1769 13.937C84.4621 11.811 83.3036 9.86962 81.7816 8.24749C80.2596 6.62537 78.4107 5.36141 76.3632 4.54335C74.3157 3.72529 72.1186 3.37273 69.9245 3.51013C67.7303 3.64754 65.5917 4.27162 63.6571 5.33907L60.4976 2.10782ZM68.0782 9.86043C70.3871 9.11071 72.8906 9.30875 75.0593 10.4127C77.228 11.5166 78.8918 13.4399 79.699 15.7758C80.5061 18.1116 80.3933 20.677 79.3844 22.9294C78.3754 25.1817 76.5495 26.9444 74.2926 27.8448L75.8041 23.8258C76.2935 22.5246 76.404 21.1063 76.1224 19.7421C75.8408 18.378 75.179 17.1265 74.2171 16.1386L68.0782 9.86043ZM67.6218 27.9489C65.3743 27.1061 63.5279 25.4147 62.4625 23.2224C63.107 21.955 63.339 20.5103 63.1247 19.0987C62.9103 17.6871 62.2608 16.3824 61.2707 15.3747C60.6615 14.749 59.9374 14.2526 59.1401 13.9138C58.3427 13.5751 57.4878 13.4007 56.6244 13.4007C55.761 13.4007 54.9061 13.5751 54.1088 13.9138C53.3114 14.2526 52.5874 14.749 51.9781 15.3747C50.9911 16.3793 50.3425 17.6792 50.1261 19.0861C49.9098 20.493 50.1371 21.9337 50.7749 23.1997C51.4128 24.4657 52.4282 25.4911 53.674 26.1274C54.9199 26.7638 56.3314 26.978 57.7042 26.739C59.5277 29.974 62.4372 32.4224 65.8923 33.6295L64.7704 36.6141C64.4933 37.3639 64.0632 38.0449 63.5089 38.6117L31.2448 71.6078L31.2274 71.6257C31.1144 71.7412 30.9801 71.8325 30.8322 71.8942C30.6844 71.956 30.5259 71.9869 30.3662 71.9853C30.2065 71.9836 30.0487 71.9494 29.9021 71.8845C29.7555 71.8197 29.623 71.7257 29.5124 71.6078L6.25903 47.8268L6.24159 47.809C6.12864 47.6935 6.03936 47.5561 5.97898 47.4049C5.91861 47.2537 5.88834 47.0916 5.88997 46.9283C5.89159 46.765 5.92507 46.6036 5.98844 46.4537C6.05181 46.3037 6.1438 46.1682 6.25903 46.0551L38.5231 13.059C39.055 12.515 39.7236 12.078 40.488 11.7659L55.0505 6.04061L55.0563 6.03763C55.28 5.94526 55.5253 5.92194 55.7619 5.97054C55.9985 6.01914 56.216 6.13754 56.3875 6.31111L70.107 20.3419C70.2739 20.5167 70.3883 20.7366 70.4367 20.9758C70.4851 21.215 70.4655 21.4633 70.3802 21.6915L67.9793 28.0737C67.8594 28.0345 67.7402 27.9929 67.6218 27.9489ZM55.8847 16.4537C55.4865 18.9312 55.679 21.4704 56.4457 23.8556C55.7379 23.8221 55.055 23.5788 54.4801 23.1553C53.9052 22.7318 53.4633 22.1464 53.2081 21.4704C52.953 20.7945 52.8957 20.0572 53.0432 19.3485C53.1907 18.6398 53.5367 17.9903 54.0389 17.4793C54.5431 16.9604 55.1847 16.6039 55.8847 16.4537Z" fill="#56B947"/>
</svg>
