<svg width="20" height="20" viewBox="0 0 20 20" fill="none" xmlns="http://www.w3.org/2000/svg">
<path d="M5.55556 12.9412H15.5556C16.1667 12.9412 16.6667 13.4706 16.6667 14.1176C16.6667 14.7647 16.1667 15.2941 15.5556 15.2941H4.44444C3.83333 15.2941 3.33333 14.7647 3.33333 14.1176V2.35294H1.11111C0.5 2.35294 0 1.82353 0 1.17647C0 0.529412 0.5 0 1.11111 0H4.44444C5.05556 0 5.55556 0.529412 5.55556 1.17647V3.52941H20L15.5556 11.7647H5.55556V12.9412ZM5 16.4706C5.92222 16.4706 6.66667 17.2588 6.66667 18.2353C6.66667 19.2118 5.92222 20 5 20C4.07778 20 3.33333 19.2118 3.33333 18.2353C3.33333 17.2588 4.07778 16.4706 5 16.4706ZM15 16.4706C15.9222 16.4706 16.6667 17.2588 16.6667 18.2353C16.6667 19.2118 15.9222 20 15 20C14.0778 20 13.3333 19.2118 13.3333 18.2353C13.3333 17.2588 14.0778 16.4706 15 16.4706Z" fill="white"/>
</svg>
