<svg width="30" height="30" viewBox="0 0 30 30" fill="none" xmlns="http://www.w3.org/2000/svg">
<path d="M1.27536 0C0.937115 0 0.612722 0.131696 0.373545 0.366117C0.134368 0.600537 0 0.918479 0 1.25C0 1.58152 0.134368 1.89946 0.373545 2.13388C0.612722 2.3683 0.937115 2.5 1.27536 2.5H1.90284C2.17978 2.50047 2.44903 2.58928 2.66991 2.753C2.8908 2.91672 3.05131 3.14646 3.12719 3.4075L7.17263 17.2825C7.40144 18.0655 7.88414 18.7542 8.54774 19.2445C9.21133 19.7348 10.0198 20 10.8508 20H22.505C23.2699 20.0001 24.0172 19.7756 24.6505 19.3554C25.2839 18.9351 25.7742 18.3385 26.0582 17.6425L29.818 8.4275C29.9725 8.04831 30.03 7.6378 29.9853 7.23183C29.9406 6.82586 29.7951 6.43679 29.5616 6.09865C29.3281 5.7605 29.0136 5.48357 28.6456 5.29205C28.2777 5.10053 27.8675 5.00026 27.4509 5H6.24417L5.57843 2.72C5.35021 1.93693 4.8681 1.24797 4.20497 0.757241C3.54185 0.266517 2.73375 0.00071092 1.90284 0H1.27536ZM11.4783 30C11.9807 30 12.4782 29.903 12.9424 29.7145C13.4066 29.5261 13.8284 29.2499 14.1837 28.9017C14.539 28.5534 14.8208 28.14 15.0131 27.6851C15.2054 27.2301 15.3043 26.7425 15.3043 26.25C15.3043 25.7575 15.2054 25.2699 15.0131 24.8149C14.8208 24.36 14.539 23.9466 14.1837 23.5983C13.8284 23.2501 13.4066 22.9739 12.9424 22.7855C12.4782 22.597 11.9807 22.5 11.4783 22.5C10.4635 22.5 9.49034 22.8951 8.77281 23.5983C8.05527 24.3016 7.65217 25.2554 7.65217 26.25C7.65217 27.2446 8.05527 28.1984 8.77281 28.9017C9.49034 29.6049 10.4635 30 11.4783 30ZM21.6812 30C22.1836 30 22.6811 29.903 23.1453 29.7145C23.6095 29.5261 24.0313 29.2499 24.3866 28.9017C24.7419 28.5534 25.0237 28.14 25.216 27.6851C25.4083 27.2301 25.5072 26.7425 25.5072 26.25C25.5072 25.7575 25.4083 25.2699 25.216 24.8149C25.0237 24.36 24.7419 23.9466 24.3866 23.5983C24.0313 23.2501 23.6095 22.9739 23.1453 22.7855C22.6811 22.597 22.1836 22.5 21.6812 22.5C20.6664 22.5 19.6932 22.8951 18.9757 23.5983C18.2582 24.3016 17.8551 25.2554 17.8551 26.25C17.8551 27.2446 18.2582 28.1984 18.9757 28.9017C19.6932 29.6049 20.6664 30 21.6812 30Z" fill="#70B756"/>
</svg>
