<svg width="80" height="80" viewBox="0 0 80 80" fill="none" xmlns="http://www.w3.org/2000/svg">
<path fill-rule="evenodd" clip-rule="evenodd" d="M6.66683 6.6665C5.78277 6.6665 4.93493 7.01769 4.30981 7.64281C3.68469 8.26794 3.3335 9.11578 3.3335 9.99984V56.6665C3.3335 61.1798 6.3235 64.9932 10.4302 66.2398C11.0415 68.2565 12.2743 70.0285 13.9526 71.3029C15.6309 72.5773 17.6688 73.2889 19.7756 73.3362C21.8824 73.3835 23.9502 72.7641 25.684 71.5663C27.4178 70.3686 28.7289 68.6537 29.4302 66.6665H50.5668C51.2681 68.6537 52.5792 70.3686 54.313 71.5663C56.0468 72.7641 58.1146 73.3835 60.2214 73.3362C62.3282 73.2889 64.3661 72.5773 66.0444 71.3029C67.7227 70.0285 68.9555 68.2565 69.5668 66.2398C71.6207 65.6169 73.4198 64.3499 74.6983 62.626C75.9768 60.9021 76.667 58.8128 76.6668 56.6665V43.3332C76.6668 41.1445 76.2357 38.9772 75.3982 36.9551C74.5606 34.933 73.3329 33.0957 71.7853 31.5481C70.2376 30.0004 68.4003 28.7728 66.3782 27.9352C64.3561 27.0976 62.1889 26.6665 60.0002 26.6665H46.6668V9.99984C46.6668 9.11578 46.3156 8.26794 45.6905 7.64281C45.0654 7.01769 44.2176 6.6665 43.3335 6.6665H6.66683ZM50.5702 59.9998H46.6668V33.3332H60.0002C62.6523 33.3332 65.1959 34.3867 67.0712 36.2621C68.9466 38.1375 70.0002 40.681 70.0002 43.3332V56.6665C70.0006 57.1043 69.9146 57.5378 69.747 57.9423C69.5794 58.3467 69.3335 58.714 69.0235 59.0232C68.1713 57.238 66.8088 55.7456 65.1084 54.7349C63.4079 53.7242 61.4459 53.2405 59.4705 53.3451C57.4951 53.4496 55.5951 54.1377 54.0108 55.3223C52.4265 56.5068 51.2291 58.1347 50.5702 59.9998ZM17.6435 60.9765C17.951 60.6581 18.3188 60.4042 18.7255 60.2295C19.1322 60.0548 19.5696 59.9628 20.0122 59.959C20.4548 59.9552 20.8937 60.0395 21.3033 60.2071C21.713 60.3747 22.0852 60.6222 22.3981 60.9352C22.7111 61.2482 22.9586 61.6203 23.1262 62.03C23.2938 62.4397 23.3782 62.8786 23.3743 63.3212C23.3705 63.7638 23.2785 64.2012 23.1038 64.6079C22.9291 65.0145 22.6752 65.3824 22.3568 65.6898C21.7282 66.297 20.8861 66.633 20.0122 66.6254C19.1382 66.6178 18.3021 66.2673 17.6841 65.6492C17.0661 65.0312 16.7155 64.1952 16.7079 63.3212C16.7003 62.4472 17.0363 61.6052 17.6435 60.9765ZM56.6668 63.3332C56.6668 62.4491 57.018 61.6013 57.6431 60.9761C58.2683 60.351 59.1161 59.9998 60.0002 59.9998C60.8842 59.9998 61.7321 60.351 62.3572 60.9761C62.9823 61.6013 63.3335 62.4491 63.3335 63.3332C63.3335 64.2172 62.9823 65.0651 62.3572 65.6902C61.7321 66.3153 60.8842 66.6665 60.0002 66.6665C59.1161 66.6665 58.2683 66.3153 57.6431 65.6902C57.018 65.0651 56.6668 64.2172 56.6668 63.3332Z" fill="#56B947"/>
</svg>
