<svg width="24" height="24" viewBox="0 0 24 24" fill="none" xmlns="http://www.w3.org/2000/svg">
<g clip-path="url(#clip0_415_480)">
<path d="M12 16.5V14L12 10.25L12 3L9.2 9.625L2 10.25L7.45 14.975L5.825 22L12 18.275V16.5Z" fill="#56B947"/>
<path d="M12 16.5V14L12 10.25L12 3L9.2 9.625L2 10.25L7.45 14.975L5.825 22L12 18.275V16.5Z" fill="#56B947"/>
<path d="M12 16.5V14L12 10.25L12 3L9.19999 9.625L1.99999 10.25L7.44999 14.975L5.82499 22L12 18.275V16.5Z" fill="#56B947"/>
<path d="M12 16.5V14L12 10.25L12 3L9.19999 9.625L1.99999 10.25L7.44999 14.975L5.82499 22L12 18.275V16.5Z" fill="#56B947"/>
<path d="M12 16.5V14L12 10.25L12 3L14.8 9.625L22 10.25L16.55 14.975L18.175 22L12 18.275V16.5Z" fill="#AEC6AA"/>
<path d="M12 16.5V14L12 10.25L12 3L14.8 9.625L22 10.25L16.55 14.975L18.175 22L12 18.275V16.5Z" fill="#AEC6AA"/>
<path d="M12 16.5V14L12 10.25L12 3L14.8 9.625L22 10.25L16.55 14.975L18.175 22L12 18.275V16.5Z" fill="#AEC6AA"/>
<path d="M12 16.5V14L12 10.25L12 3L14.8 9.625L22 10.25L16.55 14.975L18.175 22L12 18.275V16.5Z" fill="#AEC6AA"/>
</g>
<defs>
<clipPath id="clip0_415_480">
<rect width="24" height="24" fill="white" transform="matrix(-1 0 0 1 24 0)"/>
</clipPath>
</defs>
</svg>
