<svg width="35" height="35" viewBox="0 0 35 35" fill="none" xmlns="http://www.w3.org/2000/svg">
<path d="M17.5 0C7.83594 0 0 7.83594 0 17.5C0 27.1641 7.83594 35 17.5 35C27.1641 35 35 27.1641 35 17.5C35 7.83594 27.1641 0 17.5 0ZM24.0234 24.75C22.4375 26.2109 20.2734 27.0703 17.6914 27.0703C13.9531 27.0703 10.7188 24.9258 9.14453 21.8008C8.49609 20.5078 8.125 19.0469 8.125 17.5C8.125 15.9531 8.49609 14.4922 9.14453 13.1992C10.7188 10.0703 13.9531 7.92578 17.6914 7.92578C20.2695 7.92578 22.4336 8.875 24.0938 10.418L21.3516 13.1641C20.3594 12.2148 19.0977 11.7344 17.6953 11.7344C15.2031 11.7344 13.0938 13.418 12.3398 15.6797C12.1484 16.2539 12.0391 16.8672 12.0391 17.5C12.0391 18.1328 12.1484 18.7461 12.3398 19.3203C13.0938 21.582 15.2031 23.2656 17.6914 23.2656C18.9805 23.2656 20.0742 22.9258 20.9297 22.3516C21.9453 21.6719 22.6172 20.6602 22.8398 19.4609H17.6914V15.7578H26.7031C26.8164 16.3867 26.875 17.0391 26.875 17.7148C26.875 20.6328 25.832 23.082 24.0234 24.75Z" fill="black"/>
</svg>
