<svg width="128" height="128" viewBox="0 0 128 128" fill="none" xmlns="http://www.w3.org/2000/svg">
<path d="M126.866 52.4665C127.627 56.762 128.006 61.1142 128 65.4741C128 84.9454 120.9 101.409 108.544 112.553H108.56C97.7546 122.336 82.9013 128 65.2894 128C47.9736 128 31.367 121.257 19.1228 109.255C6.87869 97.2535 0 80.9754 0 64.0021C0 47.0288 6.87869 30.7507 19.1228 18.7488C31.367 6.74684 47.9736 0.00422295 65.2894 0.00422295C81.497 -0.181838 97.1494 5.78669 108.968 16.6597L90.3279 34.9311C83.5899 28.6351 74.5972 25.1873 65.2894 25.3314C48.257 25.3314 33.7873 36.595 28.6294 51.7625C25.8947 59.7103 25.8947 68.3179 28.6294 76.2657H28.6539C33.8362 91.4092 48.2815 102.673 65.3139 102.673C74.1117 102.673 81.6689 100.465 87.5286 96.561H87.5042C90.9066 94.3515 93.8171 91.4892 96.06 88.1468C98.3028 84.8044 99.8315 81.0512 100.554 77.1137H65.2894V52.4745L126.866 52.4665Z" fill="white"/>
</svg>
