<svg width="79" height="79" viewBox="0 0 79 79" fill="none" xmlns="http://www.w3.org/2000/svg">
<circle cx="39.5" cy="39.5" r="39.5" fill="#56B947"/>
<path d="M49.2222 22H29.7778C27.715 22 25.7367 22.8194 24.2781 24.2781C22.8194 25.7367 22 27.715 22 29.7778V49.2222C22 51.285 22.8194 53.2633 24.2781 54.7219C25.7367 56.1806 27.715 57 29.7778 57H49.2222C51.285 57 53.2633 56.1806 54.7219 54.7219C56.1806 53.2633 57 51.285 57 49.2222V29.7778C57 27.715 56.1806 25.7367 54.7219 24.2781C53.2633 22.8194 51.285 22 49.2222 22Z" stroke="white" stroke-width="2" stroke-linejoin="round"/>
<path d="M39.5002 47.2782C41.563 47.2782 43.5413 46.4588 44.9999 45.0002C46.4585 43.5415 47.278 41.5632 47.278 39.5004C47.278 37.4376 46.4585 35.4593 44.9999 34.0007C43.5413 32.5421 41.563 31.7227 39.5002 31.7227C37.4374 31.7227 35.4591 32.5421 34.0005 34.0007C32.5419 35.4593 31.7224 37.4376 31.7224 39.5004C31.7224 41.5632 32.5419 43.5415 34.0005 45.0002C35.4591 46.4588 37.4374 47.2782 39.5002 47.2782Z" stroke="white" stroke-width="2" stroke-linejoin="round"/>
<path d="M50.1944 30.7502C50.7101 30.7502 51.2047 30.5454 51.5694 30.1807C51.934 29.816 52.1389 29.3215 52.1389 28.8058C52.1389 28.2901 51.934 27.7955 51.5694 27.4308C51.2047 27.0662 50.7101 26.8613 50.1944 26.8613C49.6787 26.8613 49.1842 27.0662 48.8195 27.4308C48.4549 27.7955 48.25 28.2901 48.25 28.8058C48.25 29.3215 48.4549 29.816 48.8195 30.1807C49.1842 30.5454 49.6787 30.7502 50.1944 30.7502Z" fill="white"/>
</svg>
