<svg width="37" height="37" viewBox="0 0 37 37" fill="none" xmlns="http://www.w3.org/2000/svg">
<path d="M28.2222 1H8.77778C6.71498 1 4.73667 1.81944 3.27806 3.27806C1.81944 4.73667 1 6.71498 1 8.77778V28.2222C1 30.285 1.81944 32.2633 3.27806 33.7219C4.73667 35.1806 6.71498 36 8.77778 36H28.2222C30.285 36 32.2633 35.1806 33.7219 33.7219C35.1806 32.2633 36 30.285 36 28.2222V8.77778C36 6.71498 35.1806 4.73667 33.7219 3.27806C32.2633 1.81944 30.285 1 28.2222 1Z" stroke="white" stroke-width="2" stroke-linejoin="round"/>
<path d="M18.5002 26.2782C20.563 26.2782 22.5413 25.4588 23.9999 24.0002C25.4585 22.5415 26.278 20.5632 26.278 18.5004C26.278 16.4376 25.4585 14.4593 23.9999 13.0007C22.5413 11.5421 20.563 10.7227 18.5002 10.7227C16.4374 10.7227 14.4591 11.5421 13.0005 13.0007C11.5419 14.4593 10.7224 16.4376 10.7224 18.5004C10.7224 20.5632 11.5419 22.5415 13.0005 24.0002C14.4591 25.4588 16.4374 26.2782 18.5002 26.2782Z" stroke="white" stroke-width="2" stroke-linejoin="round"/>
<path d="M29.1944 9.75022C29.7101 9.75022 30.2047 9.54536 30.5694 9.1807C30.934 8.81605 31.1389 8.32147 31.1389 7.80577C31.1389 7.29007 30.934 6.7955 30.5694 6.43084C30.2047 6.06619 29.7101 5.86133 29.1944 5.86133C28.6787 5.86133 28.1842 6.06619 27.8195 6.43084C27.4549 6.7955 27.25 7.29007 27.25 7.80577C27.25 8.32147 27.4549 8.81605 27.8195 9.1807C28.1842 9.54536 28.6787 9.75022 29.1944 9.75022Z" fill="white"/>
</svg>
