<svg width="31" height="39" viewBox="0 0 31 39" fill="none" xmlns="http://www.w3.org/2000/svg">
<path d="M29.0801 9.58333H23.3301V7.66667C23.3301 5.63334 22.5223 3.68329 21.0846 2.24551C19.6468 0.807736 17.6967 0 15.6634 0C13.6301 0 11.68 0.807736 10.2423 2.24551C8.80448 3.68329 7.99674 5.63334 7.99674 7.66667V9.58333H2.24674C1.73841 9.58333 1.2509 9.78527 0.891457 10.1447C0.532012 10.5042 0.330078 10.9917 0.330078 11.5V32.5833C0.330078 34.1083 0.93588 35.5709 2.01421 36.6492C3.09255 37.7275 4.55508 38.3333 6.08008 38.3333H25.2467C26.7717 38.3333 28.2343 37.7275 29.3126 36.6492C30.3909 35.5709 30.9967 34.1083 30.9967 32.5833V11.5C30.9967 10.9917 30.7948 10.5042 30.4354 10.1447C30.0759 9.78527 29.5884 9.58333 29.0801 9.58333ZM11.8301 7.66667C11.8301 6.65 12.2339 5.67498 12.9528 4.95609C13.6717 4.2372 14.6467 3.83333 15.6634 3.83333C16.6801 3.83333 17.6551 4.2372 18.374 4.95609C19.0929 5.67498 19.4967 6.65 19.4967 7.66667V9.58333H11.8301V7.66667ZM27.1634 32.5833C27.1634 33.0917 26.9615 33.5792 26.602 33.9386C26.2426 34.2981 25.7551 34.5 25.2467 34.5H6.08008C5.57175 34.5 5.08424 34.2981 4.72479 33.9386C4.36535 33.5792 4.16341 33.0917 4.16341 32.5833V13.4167H7.99674V15.3333C7.99674 15.8417 8.19868 16.3292 8.55812 16.6886C8.91757 17.0481 9.40508 17.25 9.91341 17.25C10.4217 17.25 10.9093 17.0481 11.2687 16.6886C11.6281 16.3292 11.8301 15.8417 11.8301 15.3333V13.4167H19.4967V15.3333C19.4967 15.8417 19.6987 16.3292 20.0581 16.6886C20.4176 17.0481 20.9051 17.25 21.4134 17.25C21.9217 17.25 22.4093 17.0481 22.7687 16.6886C23.1281 16.3292 23.3301 15.8417 23.3301 15.3333V13.4167H27.1634V32.5833Z" fill="#56B947"/>
</svg>
