<svg width="39" height="39" viewBox="0 0 39 39" fill="none" xmlns="http://www.w3.org/2000/svg">
<path d="M13.4062 32.9062C14.0793 32.9062 14.625 32.3606 14.625 31.6875C14.625 31.0144 14.0793 30.4688 13.4062 30.4688C12.7332 30.4688 12.1875 31.0144 12.1875 31.6875C12.1875 32.3606 12.7332 32.9062 13.4062 32.9062Z" stroke="#56B947" stroke-width="2" stroke-linecap="round" stroke-linejoin="round"/>
<path d="M30.4688 32.9062C31.1418 32.9062 31.6875 32.3606 31.6875 31.6875C31.6875 31.0144 31.1418 30.4688 30.4688 30.4688C29.7957 30.4688 29.25 31.0144 29.25 31.6875C29.25 32.3606 29.7957 32.9062 30.4688 32.9062Z" stroke="#56B947" stroke-width="2" stroke-linecap="round" stroke-linejoin="round"/>
<path d="M3.65625 6.09375H8.53125L12.1875 26.8125H31.6875" stroke="#56B947" stroke-width="2" stroke-linecap="round" stroke-linejoin="round"/>
<path d="M12.1875 21.9375H31.1878C31.3287 21.9376 31.4654 21.8888 31.5744 21.7995C31.6834 21.7102 31.7581 21.5859 31.7858 21.4477L33.9795 10.479C33.9972 10.3905 33.9951 10.2992 33.9732 10.2117C33.9513 10.1242 33.9103 10.0426 33.8531 9.97291C33.7959 9.90317 33.724 9.84699 33.6424 9.80845C33.5609 9.7699 33.4718 9.74994 33.3816 9.75H9.75" stroke="#56B947" stroke-width="2" stroke-linecap="round" stroke-linejoin="round"/>
</svg>
