<svg width="27" height="27" viewBox="0 0 27 27" fill="none" xmlns="http://www.w3.org/2000/svg">
<path d="M25.9482 9H22.0441L21.2121 3.7575C21.0444 2.9643 20.6763 2.23379 20.1467 1.64352C19.617 1.05326 18.9457 0.625269 18.204 0.405C17.4589 0.152157 16.6827 0.0157107 15.9 0H11.1213C10.3387 0.0157107 9.56242 0.152157 8.81726 0.405C8.07557 0.625269 7.40427 1.05326 6.87465 1.64352C6.34503 2.23379 5.97686 2.9643 5.80922 3.7575L4.9772 9H1.07315C0.905127 8.99892 0.739237 9.03973 0.588999 9.11909C0.43876 9.19845 0.308424 9.31412 0.208608 9.45668C0.108791 9.59924 0.0423191 9.76465 0.014607 9.93944C-0.0131051 10.1142 -0.00127306 10.2934 0.0491386 10.4625L4.05986 24.6375C4.26405 25.3223 4.66994 25.9206 5.21855 26.3454C5.76717 26.7703 6.42994 26.9996 7.11057 27H19.9107C20.5877 26.9948 21.2457 26.7633 21.79 26.3388C22.3344 25.9143 22.737 25.3186 22.9401 24.6375L26.9508 10.4625C27.0007 10.2953 27.0129 10.118 26.9863 9.94496C26.9597 9.77189 26.8951 9.60778 26.7977 9.4657C26.7003 9.32363 26.5728 9.20753 26.4253 9.12667C26.2778 9.04582 26.1144 9.00244 25.9482 9ZM7.15323 9L7.92124 4.1175C8.00544 3.71885 8.20074 3.35587 8.48206 3.07521C8.76338 2.79455 9.11786 2.60903 9.49993 2.5425C10.0247 2.367 10.5709 2.27025 11.1213 2.25H15.9C16.4568 2.268 17.0094 2.36475 17.5427 2.5425C17.9248 2.60903 18.2793 2.79455 18.5606 3.07521C18.8419 3.35587 19.0372 3.71885 19.1214 4.1175L19.8681 9H7.0679H7.15323Z" fill="#56B947"/>
</svg>
