<svg width="35" height="35" viewBox="0 0 35 35" fill="none" xmlns="http://www.w3.org/2000/svg">
<path d="M13.125 0C12.7382 0 12.3673 0.153646 12.0938 0.427136C11.8203 0.700627 11.6667 1.07156 11.6667 1.45833C11.6667 1.84511 11.8203 2.21604 12.0938 2.48953C12.3673 2.76302 12.7382 2.91667 13.125 2.91667H16.0417V32.0833H13.125C12.7382 32.0833 12.3673 32.237 12.0938 32.5105C11.8203 32.784 11.6667 33.1549 11.6667 33.5417C11.6667 33.9284 11.8203 34.2994 12.0938 34.5729C12.3673 34.8464 12.7382 35 13.125 35H21.875C22.2618 35 22.6327 34.8464 22.9062 34.5729C23.1797 34.2994 23.3333 33.9284 23.3333 33.5417C23.3333 33.1549 23.1797 32.784 22.9062 32.5105C22.6327 32.237 22.2618 32.0833 21.875 32.0833H18.9583V2.91667H21.875C22.2618 2.91667 22.6327 2.76302 22.9062 2.48953C23.1797 2.21604 23.3333 1.84511 23.3333 1.45833C23.3333 1.07156 23.1797 0.700627 22.9062 0.427136C22.6327 0.153646 22.2618 0 21.875 0H13.125ZM5.83333 5.83333H13.125V29.1667H5.83333C4.28624 29.1667 2.80251 28.5521 1.70854 27.4581C0.614581 26.3642 0 24.8804 0 23.3333V11.6667C0 10.1196 0.614581 8.63584 1.70854 7.54188C2.80251 6.44791 4.28624 5.83333 5.83333 5.83333ZM29.1667 29.1667H21.875V5.83333H29.1667C30.7138 5.83333 32.1975 6.44791 33.2915 7.54188C34.3854 8.63584 35 10.1196 35 11.6667V23.3333C35 24.8804 34.3854 26.3642 33.2915 27.4581C32.1975 28.5521 30.7138 29.1667 29.1667 29.1667Z" fill="#56B947"/>
</svg>
