<svg width="64" height="80" viewBox="0 0 64 80" fill="none" xmlns="http://www.w3.org/2000/svg">
<path d="M60 20H48V16C48 11.7565 46.3143 7.68687 43.3137 4.68629C40.3131 1.68571 36.2435 0 32 0C27.7565 0 23.6869 1.68571 20.6863 4.68629C17.6857 7.68687 16 11.7565 16 16V20H4C2.93913 20 1.92172 20.4214 1.17157 21.1716C0.421428 21.9217 0 22.9391 0 24V68C0 71.1826 1.26428 74.2348 3.51472 76.4853C5.76516 78.7357 8.8174 80 12 80H52C55.1826 80 58.2348 78.7357 60.4853 76.4853C62.7357 74.2348 64 71.1826 64 68V24C64 22.9391 63.5786 21.9217 62.8284 21.1716C62.0783 20.4214 61.0609 20 60 20ZM24 16C24 13.8783 24.8429 11.8434 26.3431 10.3431C27.8434 8.84285 29.8783 8 32 8C34.1217 8 36.1566 8.84285 37.6569 10.3431C39.1571 11.8434 40 13.8783 40 16V20H24V16ZM56 68C56 69.0609 55.5786 70.0783 54.8284 70.8284C54.0783 71.5786 53.0609 72 52 72H12C10.9391 72 9.92172 71.5786 9.17157 70.8284C8.42143 70.0783 8 69.0609 8 68V28H16V32C16 33.0609 16.4214 34.0783 17.1716 34.8284C17.9217 35.5786 18.9391 36 20 36C21.0609 36 22.0783 35.5786 22.8284 34.8284C23.5786 34.0783 24 33.0609 24 32V28H40V32C40 33.0609 40.4214 34.0783 41.1716 34.8284C41.9217 35.5786 42.9391 36 44 36C45.0609 36 46.0783 35.5786 46.8284 34.8284C47.5786 34.0783 48 33.0609 48 32V28H56V68Z" fill="#56B947"/>
</svg>
