<svg width="31" height="27" viewBox="0 0 31 27" fill="none" xmlns="http://www.w3.org/2000/svg">
<path d="M21.4361 0.730282C21.0946 0.389657 20.6616 0.155023 20.1895 0.0546939C19.7174 -0.0456356 19.2264 -0.00737328 18.7755 0.164864L18.7694 0.167954L13.5926 2.15567L13.5843 2.15876C13.0594 2.36275 12.582 2.67229 12.1819 3.06816L0.735221 14.5001C0.501985 14.7313 0.316925 15.0063 0.190732 15.3093C0.0645385 15.6123 -0.000286702 15.9373 9.53141e-07 16.2655C0.000288608 16.5937 0.0656834 16.9185 0.192408 17.2213C0.319132 17.5241 0.504674 17.7988 0.738314 18.0296L8.98506 26.2657C9.21652 26.4987 9.49191 26.6835 9.79531 26.8095C10.0987 26.9355 10.4241 27.0003 10.7527 27C11.0813 26.9997 11.4066 26.9344 11.7098 26.8078C12.013 26.6813 12.288 26.496 12.5191 26.2626L23.9626 14.8338C24.3648 14.4321 24.6711 13.9584 24.8763 13.4249L25.4507 11.9346C25.5951 11.9264 25.7394 11.912 25.8817 11.8914C25.9235 11.8861 25.9649 11.8778 26.0055 11.8666C26.7745 11.7367 27.5059 11.4413 28.1491 11.0007C28.7922 10.5602 29.3317 9.98514 29.73 9.3155C30.1283 8.64586 30.3759 7.89768 30.4557 7.12287C30.5354 6.34807 30.4454 5.56522 30.1918 4.82865C29.9383 4.09208 29.5272 3.41945 28.9873 2.85745C28.4473 2.29544 27.7913 1.85753 27.0649 1.5741C26.3385 1.29067 25.559 1.16852 24.7806 1.21613C24.0022 1.26374 23.2434 1.47996 22.5571 1.84979L21.4361 0.730282ZM24.1256 3.41627C24.9447 3.15652 25.8329 3.22513 26.6023 3.6076C27.3717 3.99007 27.962 4.65641 28.2484 5.46571C28.5348 6.27501 28.4947 7.16381 28.1368 7.94417C27.7788 8.72452 27.131 9.33525 26.3303 9.64719L26.8666 8.25476C27.0402 7.80393 27.0794 7.31253 26.9795 6.83992C26.8796 6.3673 26.6448 5.93369 26.3035 5.59143L24.1256 3.41627ZM23.9637 9.68324C23.1663 9.39125 22.5112 8.80523 22.1332 8.04569C22.3619 7.6066 22.4442 7.10606 22.3682 6.61699C22.2921 6.12792 22.0617 5.67588 21.7104 5.32674C21.4943 5.10998 21.2374 4.93798 20.9545 4.82062C20.6716 4.70326 20.3683 4.64285 20.062 4.64285C19.7557 4.64285 19.4524 4.70326 19.1695 4.82062C18.8866 4.93798 18.6297 5.10998 18.4136 5.32674C18.0634 5.67482 17.8333 6.12519 17.7565 6.61262C17.6798 7.10005 17.7604 7.59922 17.9867 8.03783C18.213 8.47644 18.5733 8.83171 19.0153 9.05218C19.4573 9.27264 19.9581 9.34686 20.4451 9.26407C21.092 10.3849 22.1243 11.2332 23.3501 11.6514L22.952 12.6854C22.8537 12.9452 22.7011 13.1811 22.5045 13.3775L11.0578 24.8094L11.0516 24.8156C11.0116 24.8556 10.9639 24.8873 10.9115 24.9087C10.859 24.9301 10.8028 24.9408 10.7461 24.9402C10.6895 24.9396 10.6335 24.9278 10.5815 24.9053C10.5295 24.8829 10.4825 24.8503 10.4432 24.8094L2.19338 16.5702L2.18719 16.564C2.14712 16.524 2.11545 16.4764 2.09403 16.424C2.0726 16.3716 2.06187 16.3155 2.06244 16.2589C2.06302 16.2023 2.0749 16.1464 2.09738 16.0945C2.11986 16.0425 2.1525 15.9956 2.19338 15.9564L13.64 4.52445C13.8287 4.33598 14.0659 4.18458 14.3371 4.07644L19.5036 2.09284L19.5057 2.09181C19.585 2.05981 19.6721 2.05173 19.756 2.06857C19.8399 2.08541 19.9171 2.12643 19.978 2.18657L24.8454 7.04771C24.9046 7.10826 24.9452 7.18447 24.9623 7.26734C24.9795 7.3502 24.9726 7.43625 24.9423 7.51529L24.0905 9.72649C24.0479 9.71293 24.0056 9.6985 23.9637 9.68324ZM19.7996 5.7006C19.6583 6.55896 19.7266 7.43869 19.9986 8.26506C19.7475 8.25349 19.5052 8.16919 19.3012 8.02246C19.0973 7.87573 18.9405 7.6729 18.85 7.43871C18.7595 7.20451 18.7391 6.94907 18.7915 6.70354C18.8438 6.458 18.9665 6.23298 19.1447 6.05592C19.3236 5.87616 19.5512 5.75264 19.7996 5.7006Z" fill="#56B947"/>
</svg>
