<svg width="30" height="30" viewBox="0 0 30 30" fill="none" xmlns="http://www.w3.org/2000/svg">
<path d="M5 26.25C4.3125 26.25 3.72375 26.005 3.23375 25.515C2.74375 25.025 2.49917 24.4367 2.5 23.75V10C2.5 9.64584 2.62 9.34875 2.86 9.10875C3.1 8.86875 3.39667 8.74917 3.75 8.75C4.10417 8.75 4.40125 8.87 4.64125 9.11C4.88125 9.35 5.00084 9.64667 5 10V23.75H22.5C22.8542 23.75 23.1513 23.87 23.3913 24.11C23.6313 24.35 23.7508 24.6467 23.75 25C23.75 25.3542 23.63 25.6513 23.39 25.8913C23.15 26.1313 22.8533 26.2508 22.5 26.25H5ZM10 21.25C9.3125 21.25 8.72375 21.005 8.23375 20.515C7.74375 20.025 7.49917 19.4367 7.5 18.75V5C7.5 4.64584 7.62 4.34875 7.86 4.10875C8.1 3.86875 8.39667 3.74917 8.75 3.75H27.5C27.8542 3.75 28.1513 3.87 28.3913 4.11C28.6313 4.35 28.7508 4.64667 28.75 5V18.75C28.75 19.4375 28.505 20.0263 28.015 20.5163C27.525 21.0063 26.9367 21.2508 26.25 21.25H10ZM13.75 15H16.25C16.6042 15 16.9013 14.88 17.1413 14.64C17.3813 14.4 17.5008 14.1033 17.5 13.75V10C17.5 9.64584 17.38 9.34875 17.14 9.10875C16.9 8.86875 16.6033 8.74917 16.25 8.75H13.75C13.3958 8.75 13.0988 8.87 12.8588 9.11C12.6188 9.35 12.4992 9.64667 12.5 10V13.75C12.5 14.1042 12.62 14.4013 12.86 14.6413C13.1 14.8813 13.3967 15.0008 13.75 15ZM20 15H22.5C22.8542 15 23.1513 14.88 23.3913 14.64C23.6313 14.4 23.7508 14.1033 23.75 13.75C23.75 13.3958 23.63 13.0988 23.39 12.8588C23.15 12.6188 22.8533 12.4992 22.5 12.5H20C19.6458 12.5 19.3488 12.62 19.1088 12.86C18.8688 13.1 18.7492 13.3967 18.75 13.75C18.75 14.1042 18.87 14.4013 19.11 14.6413C19.35 14.8813 19.6467 15.0008 20 15ZM20 11.25H22.5C22.8542 11.25 23.1513 11.13 23.3913 10.89C23.6313 10.65 23.7508 10.3533 23.75 10C23.75 9.64584 23.63 9.34875 23.39 9.10875C23.15 8.86875 22.8533 8.74917 22.5 8.75H20C19.6458 8.75 19.3488 8.87 19.1088 9.11C18.8688 9.35 18.7492 9.64667 18.75 10C18.75 10.3542 18.87 10.6513 19.11 10.8913C19.35 11.1313 19.6467 11.2508 20 11.25Z" fill="#F5F5F5"/>
</svg>
