<svg width="43" height="39" viewBox="0 0 43 39" fill="none" xmlns="http://www.w3.org/2000/svg">
<path d="M30.2374 1.05485C29.7556 0.562838 29.1449 0.223923 28.479 0.0790023C27.8131 -0.0659181 27.1204 -0.0106503 26.4845 0.238137L26.4757 0.2426L19.1735 3.11374L19.1618 3.11821C18.4214 3.41286 17.748 3.85997 17.1835 4.43179L1.03709 20.9446C0.708091 21.2785 0.447049 21.6758 0.269043 22.1135C0.0910369 22.5511 -0.000404417 23.0206 1.34448e-06 23.4946C0.000407106 23.9686 0.0926519 24.4379 0.271407 24.8752C0.450162 25.3126 0.711884 25.7094 1.04145 26.0427L12.6742 37.9394C13.0007 38.2758 13.3891 38.5428 13.8171 38.7249C14.2451 38.9069 14.7041 39.0004 15.1676 39C15.6311 38.9996 16.0899 38.9052 16.5176 38.7224C16.9453 38.5396 17.3333 38.272 17.6592 37.9349L33.8013 21.4266C34.3686 20.8464 34.8006 20.1621 35.0901 19.3915L35.9003 17.2389C36.1039 17.227 36.3076 17.2062 36.5083 17.1764C36.5673 17.1688 36.6256 17.1569 36.6829 17.1407C37.7676 16.9531 38.7993 16.5263 39.7066 15.8899C40.6138 15.2536 41.3747 14.423 41.9366 13.4557C42.4985 12.4885 42.8478 11.4078 42.9603 10.2886C43.0728 9.16944 42.9458 8.03865 42.5881 6.97472C42.2304 5.91079 41.6506 4.93921 40.8889 4.12743C40.1273 3.31564 39.202 2.6831 38.1773 2.2737C37.1526 1.86431 36.0531 1.68787 34.9551 1.75663C33.857 1.8254 32.7868 2.13772 31.8186 2.67192L30.2374 1.05485ZM34.0311 4.93461C35.1866 4.55942 36.4394 4.65853 37.5248 5.21098C38.6101 5.76344 39.4427 6.72593 39.8467 7.89492C40.2506 9.0639 40.1942 10.3477 39.6892 11.4749C39.1843 12.6021 38.2705 13.4842 37.1411 13.9348L37.8975 11.9235C38.1424 11.2723 38.1977 10.5625 38.0568 9.87988C37.9159 9.19722 37.5847 8.57088 37.1033 8.07651L34.0311 4.93461ZM33.8027 13.9869C32.6779 13.5651 31.7539 12.7187 31.2207 11.6216C31.5433 10.9873 31.6594 10.2643 31.5521 9.55787C31.4448 8.85144 31.1198 8.1985 30.6243 7.69418C30.3194 7.38108 29.9571 7.13264 29.558 6.96312C29.159 6.7936 28.7312 6.70633 28.2991 6.70633C27.867 6.70633 27.4392 6.7936 27.0402 6.96312C26.6411 7.13264 26.2788 7.38108 25.9739 7.69418C25.4799 8.19696 25.1553 8.8475 25.0471 9.55157C24.9388 10.2556 25.0525 10.9767 25.3718 11.6102C25.691 12.2438 26.1991 12.7569 26.8226 13.0754C27.4461 13.3938 28.1525 13.501 28.8395 13.3814C29.7521 15.0004 31.2081 16.2257 32.9372 16.8298L32.3757 18.3234C32.237 18.6986 32.0218 19.0394 31.7444 19.3231L15.598 35.8359L15.5892 35.8448C15.5327 35.9026 15.4655 35.9483 15.3915 35.9792C15.3175 36.0101 15.2382 36.0256 15.1583 36.0247C15.0784 36.0239 14.9994 36.0068 14.926 35.9743C14.8527 35.9419 14.7864 35.8948 14.731 35.8359L3.09394 23.9347L3.08521 23.9258C3.02869 23.868 2.98401 23.7993 2.95379 23.7236C2.92358 23.6479 2.90843 23.5668 2.90925 23.4851C2.91006 23.4033 2.92681 23.3226 2.95853 23.2476C2.99024 23.1725 3.03628 23.1047 3.09394 23.0481L19.2404 6.53531C19.5066 6.26308 19.8411 6.04439 20.2237 5.88819L27.5114 3.023L27.5143 3.02151C27.6263 2.97529 27.7491 2.96361 27.8675 2.98793C27.9859 3.01226 28.0947 3.07151 28.1806 3.15837L35.0464 10.18C35.1299 10.2675 35.1872 10.3776 35.2114 10.4973C35.2357 10.617 35.2258 10.7412 35.1832 10.8554L33.9816 14.0494C33.9216 14.0298 33.8619 14.0089 33.8027 13.9869ZM27.9289 8.2342C27.7297 9.47405 27.826 10.7448 28.2096 11.9384C27.8555 11.9217 27.5137 11.7999 27.226 11.588C26.9383 11.3761 26.7171 11.0831 26.5894 10.7448C26.4618 10.4065 26.4331 10.0376 26.5069 9.68289C26.5807 9.32823 26.7539 9.0032 27.0052 8.74743C27.2575 8.48779 27.5786 8.30937 27.9289 8.2342Z" fill="#56B947"/>
</svg>
