<svg width="24" height="24" viewBox="0 0 24 24" fill="none" xmlns="http://www.w3.org/2000/svg">
<path d="M18 7H6V3H18V7ZM18 12.5C18.2833 12.5 18.521 12.404 18.713 12.212C18.905 12.02 19.0007 11.7827 19 11.5C19 11.2167 18.904 10.979 18.712 10.787C18.52 10.595 18.2827 10.4993 18 10.5C17.7167 10.5 17.479 10.596 17.287 10.788C17.095 10.98 16.9993 11.2173 17 11.5C17 11.7833 17.096 12.021 17.288 12.213C17.48 12.405 17.7173 12.5007 18 12.5ZM16 19V15H8V19H16ZM18 21H6V17H2V11C2 10.15 2.29167 9.43733 2.875 8.862C3.45833 8.28667 4.16667 7.99933 5 8H19C19.85 8 20.5627 8.28767 21.138 8.863C21.7133 9.43833 22.0007 10.1507 22 11V17H18V21Z" fill="#56B947"/>
</svg>
