<svg width="30" height="30" viewBox="0 0 30 30" fill="none" xmlns="http://www.w3.org/2000/svg">
<path d="M24.1498 28.9283H5.84982C5.24505 28.932 4.64635 28.8076 4.09307 28.5634C3.5398 28.3192 3.04448 27.9606 2.63968 27.5113C2.23488 27.0619 1.92976 26.532 1.74438 25.9564C1.55901 25.3807 1.49757 24.7723 1.5641 24.1712L2.99982 11.5498C3.05808 11.0232 3.30932 10.5369 3.70504 10.1847C4.10077 9.83253 4.61293 9.6394 5.14267 9.64262H24.857C25.3867 9.6394 25.8989 9.83253 26.2946 10.1847C26.6903 10.5369 26.9416 11.0232 26.9998 11.5498L28.3927 24.1712C28.4588 24.7687 28.3985 25.3735 28.2156 25.9461C28.0328 26.5188 27.7315 27.0466 27.3314 27.4953C26.9312 27.9439 26.4412 28.3034 25.893 28.5503C25.3449 28.7972 24.751 28.926 24.1498 28.9283Z" stroke="white" stroke-linecap="round" stroke-linejoin="round"/>
<path d="M6.42822 9.64272C6.42822 7.36943 7.33128 5.18926 8.93874 3.5818C10.5462 1.97435 12.7264 1.07129 14.9997 1.07129C17.2729 1.07129 19.4531 1.97435 21.0606 3.5818C22.668 5.18926 23.5711 7.36943 23.5711 9.64272M9.64251 16.0713H20.3568" stroke="white" stroke-linecap="round" stroke-linejoin="round"/>
</svg>
