<svg width="30" height="30" viewBox="0 0 30 30" fill="none" xmlns="http://www.w3.org/2000/svg">
<path d="M5 25H7.5V12.5C7.5 12.1685 7.6317 11.8505 7.86612 11.6161C8.10054 11.3817 8.41848 11.25 8.75 11.25H23.75V8.75C23.75 8.41848 23.6183 8.10054 23.3839 7.86612C23.1495 7.6317 22.8315 7.5 22.5 7.5H18.6863C18.3713 4.695 16.0125 2.5 13.125 2.5C10.2375 2.5 7.87875 4.695 7.56375 7.5H3.75C3.41848 7.5 3.10054 7.6317 2.86612 7.86612C2.6317 8.10054 2.5 8.41848 2.5 8.75V22.5C2.5 23.163 2.76339 23.7989 3.23223 24.2678C3.70107 24.7366 4.33696 25 5 25ZM13.125 5C14.6338 5 15.8975 6.075 16.1875 7.5H10.0625C10.3525 6.075 11.6162 5 13.125 5Z" fill="white"/>
<path d="M26.25 13.75H11.25C10.9185 13.75 10.6005 13.8817 10.3661 14.1161C10.1317 14.3505 10 14.6685 10 15V25C10 25.663 10.2634 26.2989 10.7322 26.7678C11.2011 27.2366 11.837 27.5 12.5 27.5H25C25.663 27.5 26.2989 27.2366 26.7678 26.7678C27.2366 26.2989 27.5 25.663 27.5 25V15C27.5 14.6685 27.3683 14.3505 27.1339 14.1161C26.8995 13.8817 26.5815 13.75 26.25 13.75ZM18.75 22.5C15.3038 22.5 12.5 19.6962 12.5 16.25H15C15 18.3175 16.6825 20 18.75 20C20.8175 20 22.5 18.3175 22.5 16.25H25C25 19.6962 22.1962 22.5 18.75 22.5Z" fill="white"/>
</svg>
