<svg width="39" height="39" viewBox="0 0 39 39" fill="none" xmlns="http://www.w3.org/2000/svg">
<path d="M28.7969 26.5387L35.6372 33.3774L33.3774 35.6373L26.5387 28.797C23.9941 30.8368 20.8291 31.9463 17.5678 31.9417C9.63353 31.9417 3.19409 25.5022 3.19409 17.5679C3.19409 9.63359 9.63353 3.19415 17.5678 3.19415C25.5022 3.19415 31.9416 9.63359 31.9416 17.5679C31.9462 20.8292 30.8368 23.9942 28.7969 26.5387ZM25.5932 25.3537C27.6201 23.2693 28.752 20.4753 28.7474 17.5679C28.7474 11.392 23.7438 6.38832 17.5678 6.38832C11.3919 6.38832 6.38826 11.392 6.38826 17.5679C6.38826 23.7438 11.3919 28.7475 17.5678 28.7475C20.4752 28.7521 23.2692 27.6201 25.3536 25.5932L25.5932 25.3537Z" fill="#56B947"/>
</svg>
