<svg width="26" height="26" viewBox="0 0 26 26" fill="none" xmlns="http://www.w3.org/2000/svg">
<path fill-rule="evenodd" clip-rule="evenodd" d="M18 10.5C18 11.9587 17.4205 13.3576 16.3891 14.3891C15.3576 15.4205 13.9587 16 12.5 16C11.0413 16 9.64236 15.4205 8.61091 14.3891C7.57946 13.3576 7 11.9587 7 10.5C7 9.04131 7.57946 7.64236 8.61091 6.61091C9.64236 5.57946 11.0413 5 12.5 5C13.9587 5 15.3576 5.57946 16.3891 6.61091C17.4205 7.64236 18 9.04131 18 10.5ZM15.25 10.5C15.25 11.2293 14.9603 11.9288 14.4445 12.4445C13.9288 12.9603 13.2293 13.25 12.5 13.25C11.7707 13.25 11.0712 12.9603 10.5555 12.4445C10.0397 11.9288 9.75 11.2293 9.75 10.5C9.75 9.77065 10.0397 9.07118 10.5555 8.55546C11.0712 8.03973 11.7707 7.75 12.5 7.75C13.2293 7.75 13.9288 8.03973 14.4445 8.55546C14.9603 9.07118 15.25 9.77065 15.25 10.5Z" fill="#56B947"/>
<path fill-rule="evenodd" clip-rule="evenodd" d="M13 0C5.82045 0 0 5.82045 0 13C0 20.1795 5.82045 26 13 26C20.1795 26 26 20.1795 26 13C26 5.82045 20.1795 0 13 0ZM2.36364 13C2.36364 15.47 3.20627 17.7438 4.61855 19.5496C5.61036 18.2472 6.88988 17.1916 8.35715 16.4655C9.82441 15.7393 11.4397 15.3622 13.0768 15.3636C14.6928 15.3621 16.2877 15.7294 17.7402 16.4377C19.1927 17.1459 20.4643 18.1763 21.4583 19.4504C22.4823 18.1073 23.1717 16.5398 23.4696 14.8774C23.7675 13.215 23.6652 11.5056 23.1713 9.89062C22.6774 8.2756 21.806 6.80142 20.6292 5.59004C19.4524 4.37867 18.0041 3.46492 16.4041 2.92442C14.8041 2.38391 13.0983 2.23218 11.428 2.48179C9.75771 2.73139 8.17084 3.37514 6.79873 4.35979C5.42661 5.34444 4.30869 6.64166 3.53745 8.14414C2.76622 9.64662 2.36385 11.3111 2.36364 13ZM13 23.6364C10.5583 23.64 8.19031 22.8 6.29673 21.2585C7.05892 20.1674 8.0734 19.2765 9.25386 18.6617C10.4343 18.0469 11.7458 17.7263 13.0768 17.7273C14.3912 17.7262 15.6868 18.0388 16.8562 18.639C18.0255 19.2391 19.0348 20.1096 19.8002 21.1782C17.8919 22.7697 15.4849 23.6398 13 23.6364Z" fill="#56B947"/>
</svg>
