<svg width="40" height="39" viewBox="0 0 40 39" fill="none" xmlns="http://www.w3.org/2000/svg">
<path fill-rule="evenodd" clip-rule="evenodd" d="M27.1306 13.9382C27.1306 15.7865 26.3963 17.5591 25.0894 18.8661C23.7824 20.173 22.0098 20.9073 20.1615 20.9073C18.3132 20.9073 16.5405 20.173 15.2336 18.8661C13.9266 17.5591 13.1924 15.7865 13.1924 13.9382C13.1924 12.0899 13.9266 10.3172 15.2336 9.01028C16.5405 7.70333 18.3132 6.96909 20.1615 6.96909C22.0098 6.96909 23.7824 7.70333 25.0894 9.01028C26.3963 10.3172 27.1306 12.0899 27.1306 13.9382ZM23.646 13.9382C23.646 14.8623 23.2789 15.7486 22.6254 16.4021C21.9719 17.0556 21.0856 17.4227 20.1615 17.4227C19.2373 17.4227 18.351 17.0556 17.6975 16.4021C17.044 15.7486 16.6769 14.8623 16.6769 13.9382C16.6769 13.014 17.044 12.1277 17.6975 11.4742C18.351 10.8208 19.2373 10.4536 20.1615 10.4536C21.0856 10.4536 21.9719 10.8208 22.6254 11.4742C23.2789 12.1277 23.646 13.014 23.646 13.9382Z" fill="#56B947"/>
<path fill-rule="evenodd" clip-rule="evenodd" d="M20.1616 0C9.57728 0 0.996582 8.58069 0.996582 19.165C0.996582 29.7493 9.57728 38.33 20.1616 38.33C30.7459 38.33 39.3266 29.7493 39.3266 19.165C39.3266 8.58069 30.7459 0 20.1616 0ZM4.48113 19.165C4.48113 22.8064 5.72337 26.1585 7.80538 28.8207C9.26755 26.9005 11.1539 25.3444 13.3169 24.2739C15.48 23.2034 17.8613 22.6475 20.2748 22.6495C22.6571 22.6473 25.0084 23.1888 27.1497 24.2329C29.291 25.277 31.1657 26.796 32.631 28.6743C34.1406 26.6944 35.157 24.3835 35.5962 21.9328C36.0353 19.482 35.8846 16.962 35.1564 14.5811C34.4283 12.2002 33.1436 10.0269 31.4088 8.24102C29.674 6.45517 27.5388 5.1081 25.18 4.31127C22.8212 3.51444 20.3065 3.29076 17.8441 3.65873C15.3817 4.0267 13.0423 4.97574 11.0195 6.42734C8.99666 7.87893 7.34858 9.79135 6.2116 12.0063C5.07463 14.2213 4.48144 16.6752 4.48113 19.165ZM20.1616 34.8455C16.562 34.8509 13.071 33.6125 10.2794 31.34C11.4031 29.7314 12.8986 28.4181 14.6389 27.5117C16.3792 26.6053 18.3127 26.1327 20.2748 26.1341C22.2125 26.1325 24.1226 26.5933 25.8465 27.4781C27.5704 28.3629 29.0583 29.6463 30.1866 31.2215C27.3734 33.5679 23.8249 34.8506 20.1616 34.8455Z" fill="#56B947"/>
</svg>
