<svg width="3" height="14" viewBox="0 0 3 14" fill="none" xmlns="http://www.w3.org/2000/svg">
<path d="M3 12C3 12.3978 2.84196 12.7794 2.56066 13.0607C2.27936 13.342 1.89782 13.5 1.5 13.5C1.10218 13.5 0.720644 13.342 0.43934 13.0607C0.158035 12.7794 0 12.3978 0 12C0 11.6022 0.158035 11.2206 0.43934 10.9393C0.720644 10.658 1.10218 10.5 1.5 10.5C1.89782 10.5 2.27936 10.658 2.56066 10.9393C2.84196 11.2206 3 11.6022 3 12ZM3 7C3 7.39782 2.84196 7.77936 2.56066 8.06066C2.27936 8.34196 1.89782 8.5 1.5 8.5C1.10218 8.5 0.720644 8.34196 0.43934 8.06066C0.158035 7.77936 0 7.39782 0 7C0 6.60218 0.158035 6.22064 0.43934 5.93934C0.720644 5.65804 1.10218 5.5 1.5 5.5C1.89782 5.5 2.27936 5.65804 2.56066 5.93934C2.84196 6.22064 3 6.60218 3 7ZM3 2C3 2.39782 2.84196 2.77936 2.56066 3.06066C2.27936 3.34196 1.89782 3.5 1.5 3.5C1.10218 3.5 0.720644 3.34196 0.43934 3.06066C0.158035 2.77936 0 2.39782 0 2C0 1.60218 0.158035 1.22064 0.43934 0.93934C0.720644 0.658035 1.10218 0.5 1.5 0.5C1.89782 0.5 2.27936 0.658035 2.56066 0.93934C2.84196 1.22064 3 1.60218 3 2Z" fill="white"/>
</svg>
