<svg width="30" height="30" viewBox="0 0 30 30" fill="none" xmlns="http://www.w3.org/2000/svg">
<path d="M5 5C4.33696 5 3.70107 5.26339 3.23223 5.73223C2.76339 6.20107 2.5 6.83696 2.5 7.5V12.5C3.16304 12.5 3.79893 12.7634 4.26777 13.2322C4.73661 13.7011 5 14.337 5 15C5 15.663 4.73661 16.2989 4.26777 16.7678C3.79893 17.2366 3.16304 17.5 2.5 17.5V22.5C2.5 23.163 2.76339 23.7989 3.23223 24.2678C3.70107 24.7366 4.33696 25 5 25H25C25.663 25 26.2989 24.7366 26.7678 24.2678C27.2366 23.7989 27.5 23.163 27.5 22.5V17.5C26.837 17.5 26.2011 17.2366 25.7322 16.7678C25.2634 16.2989 25 15.663 25 15C25 14.337 25.2634 13.7011 25.7322 13.2322C26.2011 12.7634 26.837 12.5 27.5 12.5V7.5C27.5 6.83696 27.2366 6.20107 26.7678 5.73223C26.2989 5.26339 25.663 5 25 5H5ZM19.375 8.75L21.25 10.625L10.625 21.25L8.75 19.375L19.375 8.75ZM11.0125 8.8C12.2375 8.8 13.225 9.7875 13.225 11.0125C13.225 11.5993 12.9919 12.162 12.577 12.577C12.162 12.9919 11.5993 13.225 11.0125 13.225C9.7875 13.225 8.8 12.2375 8.8 11.0125C8.8 10.4257 9.0331 9.86295 9.44803 9.44803C9.86295 9.0331 10.4257 8.8 11.0125 8.8ZM18.9875 16.775C20.2125 16.775 21.2 17.7625 21.2 18.9875C21.2 19.5743 20.9669 20.1371 20.552 20.552C20.1371 20.9669 19.5743 21.2 18.9875 21.2C17.7625 21.2 16.775 20.2125 16.775 18.9875C16.775 18.4007 17.0081 17.838 17.423 17.423C17.838 17.0081 18.4007 16.775 18.9875 16.775Z" fill="white"/>
</svg>
