<svg width="53" height="53" viewBox="0 0 53 53" fill="none" xmlns="http://www.w3.org/2000/svg">
<g id="ic:outline-whatsapp">
<path id="Vector" d="M42.0687 10.8429C40.0441 8.7978 37.6326 7.17632 34.9748 6.073C32.3169 4.96968 29.466 4.40661 26.5883 4.41664C14.5308 4.41664 4.70374 14.2437 4.70374 26.3012C4.70374 30.1658 5.71957 33.92 7.61874 37.2325L4.52707 48.5833L16.1208 45.5358C19.3229 47.2804 22.9225 48.2079 26.5883 48.2079C38.6458 48.2079 48.4729 38.3808 48.4729 26.3233C48.4729 20.4712 46.1983 14.9725 42.0687 10.8429ZM26.5883 44.4979C23.32 44.4979 20.1179 43.6145 17.3133 41.9583L16.6508 41.5608L9.76082 43.3716L11.5937 36.6583L11.1521 35.9737C9.33626 33.0741 8.37209 29.7225 8.36957 26.3012C8.36957 16.2754 16.5404 8.10455 26.5662 8.10455C31.4246 8.10455 35.9958 10.0037 39.4187 13.4487C41.1136 15.1358 42.4567 17.1425 43.3703 19.3525C44.2839 21.5625 44.7497 23.9319 44.7408 26.3233C44.785 36.3491 36.6142 44.4979 26.5883 44.4979ZM36.57 30.8945C36.0179 30.6295 33.3237 29.3046 32.8379 29.1058C32.33 28.9291 31.9767 28.8408 31.6012 29.3708C31.2258 29.9229 30.1879 31.1596 29.8787 31.5129C29.5696 31.8883 29.2383 31.9325 28.6862 31.6454C28.1342 31.3804 26.3675 30.7841 24.2917 28.9291C22.6575 27.4716 21.5754 25.6829 21.2442 25.1308C20.935 24.5787 21.2 24.2916 21.4871 24.0046C21.73 23.7616 22.0392 23.3641 22.3042 23.055C22.5692 22.7458 22.6796 22.5029 22.8562 22.1495C23.0329 21.7741 22.9446 21.465 22.8121 21.2C22.6796 20.935 21.5754 18.2408 21.1337 17.1366C20.6921 16.0766 20.2283 16.2091 19.8971 16.1871H18.8371C18.4617 16.1871 17.8875 16.3196 17.3796 16.8716C16.8937 17.4237 15.4804 18.7487 15.4804 21.4429C15.4804 24.1371 17.4458 26.7429 17.7108 27.0962C17.9758 27.4716 21.5754 32.9925 27.0521 35.3554C28.355 35.9296 29.3708 36.2608 30.1658 36.5037C31.4687 36.9233 32.6612 36.857 33.6108 36.7245C34.6708 36.57 36.8571 35.3995 37.2987 34.1187C37.7625 32.8379 37.7625 31.7558 37.6079 31.5129C37.4533 31.27 37.1221 31.1595 36.57 30.8945Z" fill="black"/>
</g>
</svg>
